<svg xmlns="http://www.w3.org/2000/svg" viewBox="0 0 1000 650" fill="none"><defs><radialGradient id="glow"><stop stop-color="#74f1cc" stop-opacity=".2"/><stop offset="1" stop-color="#74f1cc" stop-opacity="0"/></radialGradient></defs><ellipse cx="560" cy="300" rx="420" ry="300" fill="url(#glow)"/><g stroke="#74f1cc" stroke-width="1.4" opacity=".3"><path d="M70 380 240 150 380 270 570 100 720 240 930 120M70 380 340 480 380 270 650 450 720 240 910 480M240 150 570 100 650 450 340 480M380 270 720 240M650 450 910 480"/><circle cx="520" cy="300" r="170" stroke-dasharray="5 10"/><circle cx="520" cy="300" r="230" opacity=".4"/></g><g fill="#74f1cc"><circle cx="70" cy="380" r="5"/><circle cx="240" cy="150" r="7"/><circle cx="380" cy="270" r="9"/><circle cx="570" cy="100" r="5"/><circle cx="720" cy="240" r="8"/><circle cx="930" cy="120" r="5"/><circle cx="340" cy="480" r="6"/><circle cx="650" cy="450" r="8"/><circle cx="910" cy="480" r="5"/></g><path d="M520 200 590 228v66c0 62-70 105-70 105s-70-43-70-105v-66z" fill="#123b44" stroke="#74f1cc" stroke-width="3"/><path d="m485 292 24 24 48-52" stroke="#74f1cc" stroke-width="7" stroke-linecap="round" stroke-linejoin="round"/></svg>
